<svg width="96" height="96" viewBox="0 0 96 96" fill="none" xmlns="http://www.w3.org/2000/svg">
<g clip-path="url(#clip0_297_1998)">
<path fill-rule="evenodd" clip-rule="evenodd" d="M23.9991 0L0.000976562 24.0005H48L23.9991 0Z" fill="white"/>
<path fill-rule="evenodd" clip-rule="evenodd" d="M23.9991 24.0005L0.000976562 48.0014H48L23.9991 24.0005Z" fill="white"/>
<path fill-rule="evenodd" clip-rule="evenodd" d="M72.0005 96L95.9991 71.9995H48L72.0005 96Z" fill="white"/>
<path fill-rule="evenodd" clip-rule="evenodd" d="M72.0005 71.9996L95.9991 48.0015H48L72.0005 71.9996Z" fill="white"/>
<path fill-rule="evenodd" clip-rule="evenodd" d="M95.9991 24.0005L72.0005 0V48.0014L95.9991 24.0005Z" fill="white"/>
<path fill-rule="evenodd" clip-rule="evenodd" d="M72.0005 24.0005L48 0V48.0014L72.0005 24.0005Z" fill="white"/>
<path fill-rule="evenodd" clip-rule="evenodd" d="M0.000976562 71.9996L23.9991 96V48.0015L0.000976562 71.9996Z" fill="white"/>
<path fill-rule="evenodd" clip-rule="evenodd" d="M23.999 71.9996L48 96V48.0015L23.999 71.9996Z" fill="white"/>
</g>
<defs>
<clipPath id="clip0_297_1998">
<rect width="96" height="96" fill="white"/>
</clipPath>
</defs>
</svg>
