<svg width="96" height="96" viewBox="0 0 96 96" fill="none" xmlns="http://www.w3.org/2000/svg">
<g clip-path="url(#clip0_297_1993)">
<path fill-rule="evenodd" clip-rule="evenodd" d="M48.0001 0H0.00366211V47.9998C12.7323 47.9998 24.9405 42.9434 33.9417 33.9423C42.9428 24.9416 48.0001 12.7329 48.0001 0.00475269C48.0001 12.7334 53.0555 24.9416 62.0562 33.9427C71.0568 42.9439 83.2655 48.0002 95.9965 48.0002V0L48.0001 0Z" fill="white"/>
<path fill-rule="evenodd" clip-rule="evenodd" d="M48.0001 95.9964C48.0001 83.2668 42.9428 71.0591 33.9417 62.058C24.9405 53.0569 12.7323 48 0.00366211 48V96.0002H95.9965V48C83.2655 48 71.0568 53.0569 62.0562 62.0575C53.0555 71.0586 48.0001 83.2664 48.0001 95.996V95.9964Z" fill="white"/>
</g>
<defs>
<clipPath id="clip0_297_1993">
<rect width="96" height="96" fill="white"/>
</clipPath>
</defs>
</svg>
