<svg width="96" height="96" viewBox="0 0 96 96" fill="none" xmlns="http://www.w3.org/2000/svg">
<g clip-path="url(#clip0_297_1996)">
<path fill-rule="evenodd" clip-rule="evenodd" d="M47.9998 0C47.9998 26.5096 69.4909 47.9998 95.9995 47.9998V24.0001C82.7438 24.0001 71.9984 13.2548 71.9984 0L47.9998 0Z" fill="white"/>
<path fill-rule="evenodd" clip-rule="evenodd" d="M47.9998 95.9998C47.9998 69.4902 69.4909 48 95.9995 48V72.0001C82.7438 72.0001 71.9984 82.745 71.9984 95.9998H47.9998Z" fill="white"/>
<path fill-rule="evenodd" clip-rule="evenodd" d="M47.9998 0C47.9998 26.5096 26.5086 47.9998 0 47.9998V24.0001C13.2558 24.0001 23.9987 13.2548 23.9987 0L47.9998 0Z" fill="white"/>
<path fill-rule="evenodd" clip-rule="evenodd" d="M47.9998 95.9998C47.9998 69.4902 26.5086 48 0 48V72.0001C13.2558 72.0001 23.9987 82.745 23.9987 95.9998H47.9998Z" fill="white"/>
</g>
<defs>
<clipPath id="clip0_297_1996">
<rect width="96" height="96" fill="white"/>
</clipPath>
</defs>
</svg>
