<svg width="99" height="49" viewBox="0 0 99 49" fill="none" xmlns="http://www.w3.org/2000/svg">
<path d="M11.8375 17.5425H0.937594V0.5H11.0051V2.26123H3.07075V15.7813H11.8375V17.5425ZM1.66599 9.74646V8.03703H10.0165V9.74646H1.66599Z" fill="white"/>
<path d="M14.5977 17.5425V6.94921L16.6528 6.58661V17.5425H14.5977ZM15.6382 3.78936C15.2047 3.78936 14.8578 3.66849 14.5977 3.42675C14.3549 3.16775 14.2335 2.83967 14.2335 2.44253C14.2335 2.04539 14.3549 1.72596 14.5977 1.48422C14.8578 1.22521 15.2047 1.09571 15.6382 1.09571C16.0371 1.09571 16.3666 1.22521 16.6268 1.48422C16.8869 1.72596 17.017 2.04539 17.017 2.44253C17.017 2.83967 16.8869 3.16775 16.6268 3.42675C16.3666 3.66849 16.0371 3.78936 15.6382 3.78936Z" fill="white"/>
<path d="M22.7582 17.8015C22.2379 17.8015 21.735 17.7497 21.2494 17.6461C20.7638 17.5598 20.3215 17.4389 19.9226 17.2835C19.5411 17.1281 19.2116 16.9641 18.9341 16.7914L19.5064 15.1338C19.9226 15.5309 20.4429 15.8503 21.0673 16.0921C21.6916 16.3165 22.2899 16.4288 22.8622 16.4288C23.5386 16.4288 24.0589 16.2647 24.4231 15.9367C24.7873 15.5913 24.9694 15.2028 24.9694 14.7711C24.9694 14.3395 24.8306 14.0028 24.5532 13.761C24.293 13.502 23.9462 13.2862 23.5126 13.1135C23.0964 12.9408 22.6541 12.7768 22.1859 12.6214C21.735 12.466 21.2927 12.2761 20.8592 12.0516C20.4429 11.8099 20.1047 11.4991 19.8446 11.1192C19.5845 10.7393 19.4544 10.2558 19.4544 9.66876C19.4544 8.96081 19.6278 8.38237 19.9747 7.93343C20.3215 7.46722 20.7811 7.11325 21.3534 6.87151C21.9431 6.62977 22.5934 6.5089 23.3045 6.5089C23.8421 6.5089 24.3884 6.57797 24.9434 6.71611C25.4983 6.85424 25.9753 7.04418 26.3742 7.28592L25.8018 8.83994C25.4723 8.51187 25.0474 8.2615 24.5272 8.08883C24.0069 7.91616 23.5646 7.82983 23.2004 7.82983C22.5761 7.82983 22.0992 7.96796 21.7697 8.24423C21.4575 8.5205 21.3014 8.85721 21.3014 9.25435C21.3014 9.63422 21.4315 9.94503 21.6916 10.1868C21.9691 10.4285 22.3159 10.6357 22.7322 10.8084C23.1484 10.981 23.5906 11.1537 24.0589 11.3264C24.5445 11.4818 24.9954 11.6804 25.4116 11.9221C25.8452 12.1638 26.1921 12.4833 26.4522 12.8804C26.7297 13.2603 26.8684 13.7524 26.8684 14.3567C26.8684 14.8229 26.773 15.2633 26.5823 15.6777C26.4088 16.0921 26.14 16.4633 25.7758 16.7914C25.429 17.1022 24.9954 17.3526 24.4751 17.5425C23.9722 17.7152 23.3999 17.8015 22.7582 17.8015Z" fill="white"/>
<path d="M36.6981 17.5425V11.3523C36.6981 10.3508 36.4727 9.56516 36.0218 8.99535C35.5708 8.42554 34.9292 8.14063 34.0967 8.14063C33.6631 8.14063 33.2036 8.22697 32.718 8.39964C32.2497 8.57231 31.8075 8.83994 31.3912 9.20255C30.975 9.54789 30.6195 10.0055 30.3247 10.5753L29.6223 9.95366C30.0385 9.19392 30.5328 8.57231 31.1051 8.08883C31.6947 7.58809 32.3191 7.21685 32.9781 6.97511C33.6545 6.73337 34.3135 6.61251 34.9552 6.61251C35.7009 6.61251 36.3513 6.77654 36.9062 7.10461C37.4785 7.41542 37.9295 7.87299 38.259 8.47734C38.5885 9.08168 38.7532 9.80689 38.7532 10.653V17.5425H36.6981ZM28.7898 17.5425V6.94921L30.4807 6.58661L30.8449 9.07305V17.5425H28.7898Z" fill="white"/>
<path d="M46.0437 17.8015C45.0205 17.8015 44.11 17.5943 43.3122 17.1799C42.5318 16.7482 41.9161 16.1352 41.4652 15.341C41.0316 14.5467 40.8149 13.6056 40.8149 12.5178C40.8149 11.3264 41.0577 10.2817 41.5433 9.38385C42.0462 8.48597 42.7226 7.78666 43.5724 7.28592C44.4222 6.78518 45.3847 6.5348 46.4599 6.5348C47.7606 6.5348 48.7405 6.91468 49.3995 7.67442C50.0586 8.4169 50.3881 9.44429 50.3881 10.7566C50.3881 10.912 50.3881 11.076 50.3881 11.2487C50.3881 11.4214 50.3707 11.594 50.336 11.7667H48.5931V10.7307C48.5931 9.81553 48.411 9.13348 48.0468 8.68454C47.6826 8.21833 47.1016 7.98523 46.3038 7.98523C45.5928 7.98523 44.9685 8.1579 44.4308 8.50324C43.8932 8.84858 43.477 9.34069 43.1821 9.97956C42.8873 10.6184 42.7399 11.3696 42.7399 12.2329C42.7399 13.4589 43.0781 14.4344 43.7545 15.1597C44.4482 15.8676 45.35 16.2216 46.4599 16.2216C47.0322 16.2216 47.5785 16.118 48.0988 15.9108C48.6365 15.6863 49.1567 15.3582 49.6597 14.9265L50.3621 15.9885C49.8938 16.4374 49.4169 16.8 48.9313 17.0763C48.4457 17.3353 47.9601 17.5166 47.4745 17.6202C46.9889 17.7411 46.512 17.8015 46.0437 17.8015ZM41.9075 11.7667L42.1416 10.4976H50.0759V11.7667H41.9075Z" fill="white"/>
<path d="M52.418 17.5425V6.94921L54.1089 6.58661L54.4731 9.22845V17.5425H52.418ZM54.1089 10.7825L53.6146 10.135C54.1869 9.04715 54.8373 8.19243 55.5657 7.57082C56.3114 6.94921 57.1352 6.63841 58.037 6.63841C58.4186 6.63841 58.7741 6.69021 59.1036 6.79381C59.4331 6.88014 59.7193 7.02691 59.9621 7.23412L59.1296 8.94355C58.9389 8.78814 58.6874 8.66727 58.3752 8.58094C58.0804 8.47734 57.7682 8.42554 57.4387 8.42554C56.797 8.42554 56.1987 8.62411 55.6437 9.02125C55.0888 9.41839 54.5772 10.0055 54.1089 10.7825Z" fill="white"/>
<path d="M6.58267 41.1702C5.45539 41.1702 4.44951 40.9716 3.56502 40.5745C2.69788 40.1601 1.96949 39.6075 1.37983 38.9168C0.807523 38.2262 0.408639 37.4405 0.183183 36.5599C-0.042273 35.6793 -0.0596158 34.7641 0.131155 33.8144C0.356611 32.7957 0.755495 31.9064 1.32781 31.1467C1.91746 30.387 2.62851 29.7912 3.46097 29.3596C4.31076 28.9279 5.20392 28.7121 6.14043 28.7121C6.73008 28.7121 7.28505 28.807 7.80533 28.997C8.34296 29.1869 8.81988 29.4891 9.23611 29.9035L7.7533 31.2244C7.44113 30.7755 7.05092 30.4733 6.58267 30.3179C6.13175 30.1452 5.71553 30.0589 5.33399 30.0589C4.6923 30.0589 4.13734 30.197 3.66908 30.4733C3.20083 30.7496 2.81061 31.1208 2.49844 31.587C2.18627 32.0359 1.96949 32.5712 1.84809 33.1928C1.65732 34.0217 1.64865 34.8159 1.82207 35.5757C2.01285 36.3354 2.3597 37.0088 2.86264 37.5959C3.36558 38.1657 3.98992 38.6233 4.73566 38.9686C5.4814 39.2967 6.31385 39.4607 7.23302 39.4607C8.30827 39.4607 9.23611 39.2276 10.0165 38.7614C10.8143 38.278 11.456 37.57 11.9416 36.6376C12.4272 35.7052 12.748 34.5483 12.9041 33.1669L14.3349 33.2705C14.1961 34.98 13.7712 36.4304 13.0602 37.6218C12.3491 38.796 11.43 39.6852 10.3027 40.2896C9.19275 40.8766 7.95275 41.1702 6.58267 41.1702ZM1.71802 37.0779L1.06766 36.2232C1.95215 35.498 2.906 34.7555 3.92922 33.9958C4.95245 33.236 5.92364 32.4676 6.84281 31.6906C7.77932 30.8963 8.57709 30.1021 9.23611 29.3078C9.91248 28.4962 10.3287 27.7019 10.4848 26.9249C10.5542 26.6141 10.5628 26.2861 10.5108 25.9407C10.4761 25.5954 10.3807 25.2587 10.2246 24.9306C10.0686 24.6025 9.84311 24.3176 9.54828 24.0759L11.3172 23.0917C11.7508 23.4197 12.0456 23.7823 12.2017 24.1795C12.3578 24.5766 12.4272 24.9738 12.4098 25.3709C12.4098 25.768 12.3752 26.1306 12.3058 26.4587C12.0977 27.4602 11.6207 28.4272 10.875 29.3596C10.1466 30.292 9.26212 31.1985 8.22156 32.0791C7.19833 32.9597 6.11441 33.8144 4.96979 34.6433C3.82517 35.4721 2.74124 36.2836 1.71802 37.0779ZM9.44422 34.7728L8.50771 34.5138C8.71583 33.9612 8.9673 33.5123 9.26213 33.1669C9.55695 32.8216 9.90381 32.5626 10.3027 32.3899C10.7016 32.2173 11.1265 32.1309 11.5774 32.1309C12.0456 32.1309 12.4879 32.1827 12.9041 32.2863C13.3377 32.3727 13.7626 32.4676 14.1788 32.5712C14.595 32.6748 15.0286 32.7266 15.4795 32.7266C15.9304 32.7266 16.3293 32.6576 16.6762 32.5194C17.0404 32.364 17.3352 32.105 17.5606 31.7424L18.4972 31.9755C18.2197 32.7353 17.8381 33.3223 17.3525 33.7367C16.8669 34.1512 16.2166 34.3584 15.4015 34.3584C14.8985 34.3584 14.4389 34.3066 14.0227 34.203C13.6065 34.0994 13.2076 34.0044 12.8261 33.918C12.4445 33.8144 12.0196 33.7626 11.5514 33.7626C11.0831 33.7626 10.6669 33.8403 10.3027 33.9958C9.95584 34.1512 9.66968 34.4102 9.44422 34.7728Z" fill="white"/>
<path d="M31.9538 36.8707C31.9538 36.2836 31.8064 35.7829 31.5115 35.3685C31.2341 34.9541 30.8439 34.6001 30.3409 34.3066C29.8553 33.9958 29.3264 33.7108 28.754 33.4518C28.1817 33.1756 27.6008 32.8907 27.0111 32.5971C26.4388 32.3036 25.9098 31.9755 25.4242 31.6129C24.9386 31.233 24.5484 30.7927 24.2536 30.292C23.9588 29.774 23.8114 29.1524 23.8114 28.4272C23.8114 27.4429 24.0455 26.6055 24.5137 25.9148C24.982 25.2069 25.6237 24.663 26.4388 24.2831C27.2539 23.9032 28.1731 23.7133 29.1963 23.7133C29.9247 23.7133 30.6704 23.7996 31.4335 23.9723C32.1966 24.1449 32.8816 24.4126 33.4886 24.7752L32.6822 26.7436C32.1619 26.312 31.5462 25.9752 30.8352 25.7335C30.1415 25.4918 29.4651 25.3709 28.8061 25.3709C28.1297 25.3709 27.5661 25.4918 27.1152 25.7335C26.6816 25.9752 26.3607 26.2947 26.1526 26.6918C25.9619 27.0717 25.8665 27.4775 25.8665 27.9091C25.8665 28.4272 26.0139 28.8761 26.3087 29.256C26.6035 29.6186 26.9938 29.9466 27.4794 30.2402C27.9649 30.5165 28.4939 30.7927 29.0662 31.069C29.6559 31.328 30.2369 31.6129 30.8092 31.9237C31.3988 32.2173 31.9364 32.5626 32.422 32.9597C32.9076 33.3569 33.2979 33.8317 33.5927 34.3843C33.9048 34.9368 34.0609 35.5843 34.0609 36.3268C34.0609 37.3801 33.8095 38.278 33.3065 39.0204C32.8036 39.7629 32.1185 40.3327 31.2514 40.7299C30.3843 41.1097 29.4131 41.2997 28.3378 41.2997C27.2452 41.2997 26.2307 41.1356 25.2942 40.8076C24.375 40.4795 23.6119 40.0651 23.0049 39.5643L24.0975 37.7254C24.7219 38.3125 25.4502 38.7701 26.2827 39.0981C27.1152 39.4262 27.9476 39.5902 28.7801 39.5902C29.7686 39.5902 30.5404 39.3485 31.0953 38.865C31.6676 38.3643 31.9538 37.6995 31.9538 36.8707Z" fill="white"/>
<path d="M40.4712 41.1961C39.8468 41.1961 39.2745 41.0666 38.7543 40.8076C38.2513 40.5486 37.8524 40.1773 37.5576 39.6938C37.2628 39.1931 37.1154 38.5801 37.1154 37.8549V30.7841L37.8177 27.9609L39.1705 27.7019V37.4923C39.1705 38.2175 39.3352 38.7614 39.6647 39.124C40.0116 39.4866 40.4712 39.6679 41.0435 39.6679C41.3904 39.6679 41.7459 39.6075 42.1101 39.4866C42.4916 39.3658 42.8645 39.1672 43.2287 38.8909L43.827 39.8233C43.3241 40.2896 42.7778 40.6349 42.1881 40.8594C41.6158 41.0838 41.0435 41.1961 40.4712 41.1961ZM43.2027 31.8201L34.9822 31.7942L35.1123 30.5251L43.3067 30.3956L43.2027 31.8201Z" fill="white"/>
<path d="M49.6765 41.2738C48.6533 41.2738 47.7428 41.0666 46.9451 40.6522C46.1646 40.2205 45.549 39.6075 45.098 38.8132C44.6645 38.019 44.4477 37.0779 44.4477 35.9901C44.4477 34.7987 44.6905 33.754 45.1761 32.8561C45.679 31.9582 46.3554 31.2589 47.2052 30.7582C48.055 30.2575 49.0175 30.0071 50.0928 30.0071C51.3935 30.0071 52.3733 30.387 53.0324 31.1467C53.6914 31.8892 54.0209 32.9166 54.0209 34.2289C54.0209 34.3843 54.0209 34.5483 54.0209 34.721C54.0209 34.8936 54.0036 35.0663 53.9689 35.239H52.2259V34.203C52.2259 33.2878 52.0438 32.6058 51.6796 32.1568C51.3154 31.6906 50.7345 31.4575 49.9367 31.4575C49.2256 31.4575 48.6013 31.6302 48.0637 31.9755C47.526 32.3209 47.1098 32.813 46.815 33.4518C46.5202 34.0907 46.3727 34.8418 46.3727 35.7052C46.3727 36.9311 46.7109 37.9067 47.3873 38.6319C48.081 39.3399 48.9828 39.6938 50.0928 39.6938C50.6651 39.6938 51.2114 39.5902 51.7317 39.383C52.2693 39.1586 52.7896 38.8305 53.2925 38.3988L53.9949 39.4607C53.5266 39.9097 53.0497 40.2723 52.5641 40.5486C52.0785 40.8076 51.5929 40.9889 51.1073 41.0925C50.6217 41.2133 50.1448 41.2738 49.6765 41.2738ZM45.5403 35.239L45.7744 33.9698H53.7087V35.239H45.5403Z" fill="white"/>
<path d="M56.0508 41.0148V30.4215L57.7417 30.0589L58.1059 32.7007V41.0148H56.0508ZM57.7417 34.2548L57.2475 33.6072C57.8198 32.5194 58.4701 31.6647 59.1985 31.0431C59.9443 30.4215 60.7681 30.1107 61.6699 30.1107C62.0514 30.1107 62.4069 30.1625 62.7365 30.2661C63.066 30.3524 63.3521 30.4992 63.5949 30.7064L62.7625 32.4158C62.5717 32.2604 62.3202 32.1396 62.0081 32.0532C61.7132 31.9496 61.4011 31.8978 61.0716 31.8978C60.4299 31.8978 59.8315 32.0964 59.2766 32.4935C58.7216 32.8907 58.21 33.4777 57.7417 34.2548Z" fill="white"/>
<path d="M65.0777 41.0148V22.7809L67.0808 22.4442V41.0148H65.0777Z" fill="white"/>
<path d="M70.646 41.0148V30.4215L72.7011 30.0589V41.0148H70.646ZM71.6866 27.2616C71.253 27.2616 70.9061 27.1408 70.646 26.899C70.4032 26.64 70.2818 26.312 70.2818 25.9148C70.2818 25.5177 70.4032 25.1982 70.646 24.9565C70.9061 24.6975 71.253 24.568 71.6866 24.568C72.0854 24.568 72.4149 24.6975 72.6751 24.9565C72.9352 25.1982 73.0653 25.5177 73.0653 25.9148C73.0653 26.312 72.9352 26.64 72.6751 26.899C72.4149 27.1408 72.0854 27.2616 71.6866 27.2616Z" fill="white"/>
<path d="M83.8793 41.0148V34.8246C83.8793 33.8231 83.6538 33.0374 83.2029 32.4676C82.752 31.8978 82.1103 31.6129 81.2779 31.6129C80.8443 31.6129 80.3847 31.6992 79.8991 31.8719C79.4308 32.0446 78.9886 32.3122 78.5724 32.6748C78.1562 33.0202 77.8006 33.4777 77.5058 34.0476L76.8034 33.4259C77.2196 32.6662 77.7139 32.0446 78.2862 31.5611C78.8759 31.0604 79.5002 30.6891 80.1592 30.4474C80.8356 30.2057 81.4946 30.0848 82.1363 30.0848C82.8821 30.0848 83.5324 30.2488 84.0874 30.5769C84.6597 30.8877 85.1106 31.3453 85.4401 31.9496C85.7696 32.554 85.9344 33.2792 85.9344 34.1253V41.0148H83.8793ZM75.971 41.0148V30.4215L77.6619 30.0589L78.0261 32.5453V41.0148H75.971Z" fill="white"/>
<path d="M92.3144 48.5C91.4472 48.5 90.6668 48.3705 89.9731 48.1115C89.2794 47.8525 88.7331 47.4812 88.3342 46.9978C87.9353 46.5316 87.7359 45.979 87.7359 45.3401C87.7359 44.5286 88.1001 43.7171 88.8285 42.9055C89.5569 42.1112 90.6581 41.4119 92.1323 40.8076L92.6786 41.4292C91.69 41.9299 90.9616 42.4825 90.4934 43.0868C90.0425 43.6911 89.817 44.3041 89.817 44.9257C89.817 45.6164 90.0945 46.1603 90.6495 46.5575C91.2044 46.9719 91.9328 47.1791 92.8346 47.1791C93.5804 47.1791 94.2481 47.0409 94.8377 46.7647C95.4447 46.4884 95.9217 46.1172 96.2685 45.6509C96.6327 45.1847 96.8148 44.6495 96.8148 44.0451C96.8148 43.5098 96.6761 43.1127 96.3986 42.8537C96.1211 42.612 95.6875 42.4307 95.0979 42.3098C94.5256 42.1889 93.7712 42.0853 92.8346 41.999C92.0889 41.9127 91.3779 41.8004 90.7015 41.6623C90.0425 41.5241 89.5135 41.2997 89.1146 40.9889C88.7157 40.6781 88.5163 40.2464 88.5163 39.6938C88.5163 39.2449 88.6203 38.8564 88.8285 38.5283C89.0539 38.183 89.3574 37.8636 89.739 37.57C90.1378 37.2765 90.6061 36.9916 91.1437 36.7153L91.8201 37.3628C91.4212 37.57 91.057 37.8031 90.7275 38.0621C90.4153 38.3211 90.2592 38.6406 90.2592 39.0204C90.2592 39.3312 90.3893 39.573 90.6495 39.7457C90.9096 39.9183 91.3085 40.0565 91.8461 40.1601C92.3837 40.2464 93.0774 40.3414 93.9272 40.445C94.8637 40.5313 95.6962 40.6608 96.4246 40.8335C97.153 41.0061 97.7253 41.2824 98.1415 41.6623C98.5751 42.0594 98.7919 42.6465 98.7919 43.4235C98.7919 44.3905 98.4971 45.2538 97.9074 46.0136C97.3177 46.7906 96.5287 47.3949 95.5401 47.8266C94.5689 48.2755 93.4937 48.5 92.3144 48.5ZM92.7046 37.9326C91.8548 37.9326 91.1004 37.7686 90.4413 37.4405C89.7997 37.1124 89.2967 36.6635 88.9325 36.0937C88.5683 35.5066 88.3862 34.8505 88.3862 34.1253C88.3862 33.331 88.5943 32.623 89.0106 32.0014C89.4268 31.3798 89.9904 30.8963 90.7015 30.551C91.4125 30.2057 92.2103 30.033 93.0948 30.033C94.3608 30.033 95.384 30.387 96.1645 31.0949C96.9622 31.7856 97.3611 32.6835 97.3611 33.7885C97.3611 34.5828 97.1617 35.2908 96.7628 35.9124C96.3639 36.534 95.8089 37.0261 95.0979 37.3887C94.4042 37.7513 93.6064 37.9326 92.7046 37.9326ZM92.9907 36.5858C93.511 36.5858 93.9533 36.4822 94.3174 36.275C94.6816 36.0505 94.9678 35.757 95.1759 35.3944C95.384 35.0145 95.4881 34.5828 95.4881 34.0994C95.4881 33.3051 95.2366 32.6576 94.7337 32.1568C94.2307 31.6388 93.5717 31.3798 92.7566 31.3798C92.0282 31.3798 91.4299 31.6129 90.9616 32.0791C90.5107 32.5281 90.2853 33.1324 90.2853 33.8921C90.2853 34.4102 90.398 34.8764 90.6234 35.2908C90.8662 35.6879 91.1871 36.0073 91.586 36.2491C92.0022 36.4736 92.4704 36.5858 92.9907 36.5858ZM94.9158 31.7165L94.6556 30.7064L99 30.3697V31.7165H94.9158Z" fill="white"/>
</svg>
