<svg width="151" height="28" viewBox="0 0 151 28" fill="none" xmlns="http://www.w3.org/2000/svg">
<path d="M26.0411 13.9819H21.3769C17.3026 13.9819 13.9998 17.2805 13.9998 21.3495V26.0078C20.4302 25.5315 25.5643 20.404 26.0411 13.9819Z" fill="white"/>
<path d="M12.0413 26.0078V21.3495C12.0413 17.2805 8.73849 13.9819 4.66425 13.9819H0C0.476788 20.404 5.61093 25.5315 12.0413 26.0078Z" fill="white"/>
<path d="M26.0411 12.0259C25.5643 5.60374 20.4302 0.476177 13.9998 0V4.65827C13.9998 8.72729 17.3026 12.0259 21.3769 12.0259H26.0411Z" fill="white"/>
<path d="M12.0413 0C5.61093 0.476177 0.476788 5.60374 0 12.0259H4.66425C8.73849 12.0259 12.0413 8.72729 12.0413 4.65827V0Z" fill="white"/>
<path d="M8.83113 13.0039C10.6411 12.1007 12.1162 10.6275 13.0205 8.81981C13.9249 10.6275 15.3999 12.1007 17.21 13.0039C15.3999 13.907 13.9249 15.3802 13.0205 17.1879C12.1162 15.3802 10.6411 13.907 8.83113 13.0039Z" fill="white"/>
<path d="M43.3348 23.0448C41.6374 23.0448 40.1431 22.6681 38.8519 21.9147C37.5608 21.1613 36.5525 20.1036 35.8271 18.7416C35.1018 17.3797 34.7391 15.7931 34.7391 13.982C34.7391 12.1709 35.1163 10.5844 35.8707 9.22242C36.625 7.86046 37.6768 6.80277 39.026 6.04935C40.3752 5.29593 41.9493 4.91922 43.7482 4.91922C45.1554 4.91922 46.4031 5.15829 47.4911 5.63642C48.5792 6.10006 49.4642 6.7738 50.146 7.65762C50.8424 8.52695 51.2921 9.58464 51.4952 10.8307H48.3398C48.1512 9.78748 47.658 8.98335 46.8601 8.41828C46.0622 7.85322 45.0249 7.57068 43.7482 7.57068C42.5441 7.57068 41.4923 7.83148 40.5928 8.35308C39.7079 8.87468 39.0188 9.62086 38.5255 10.5916C38.0323 11.5624 37.7856 12.6997 37.7856 14.0037C37.7856 15.3222 38.0323 16.4741 38.5255 17.4593C39.0333 18.4301 39.7296 19.1908 40.6146 19.7413C41.4996 20.2774 42.5296 20.5455 43.7047 20.5455C44.6187 20.5455 45.4383 20.3933 46.1637 20.0891C46.8891 19.7703 47.4621 19.3429 47.8828 18.8068C48.3181 18.2707 48.5357 17.6622 48.5357 16.9812V16.0684H43.4V13.6777H49.0362C49.8341 13.6777 50.4434 13.8806 50.8641 14.2863C51.2848 14.6775 51.4952 15.2498 51.4952 16.0032V22.784H48.6662V20.4585H48.5574C48.1657 21.2699 47.5056 21.9074 46.5772 22.3711C45.6632 22.8202 44.5824 23.0448 43.3348 23.0448Z" fill="white"/>
<path d="M55.4469 22.784V12.7215H53.9454V9.74402H57.0355V12.2433H57.9494C58.2976 11.3885 58.8489 10.7365 59.6033 10.2873C60.3722 9.83819 61.2499 9.61362 62.2364 9.61362H63.3245V12.1564H62.1058C60.8727 12.1564 59.937 12.5114 59.2986 13.2213C58.6748 13.9313 58.3629 14.8803 58.3629 16.0684V22.784H55.4469Z" fill="white"/>
<path d="M65.5638 22.784V9.74402H68.5233V22.784H65.5638ZM67.0436 8.17922C66.5793 8.17922 66.1804 8.01984 65.8467 7.70109C65.513 7.36784 65.3462 6.96215 65.3462 6.48402C65.3462 6.02037 65.5058 5.62193 65.825 5.28869C66.1586 4.95544 66.5648 4.78882 67.0436 4.78882C67.5078 4.78882 67.9068 4.95544 68.2404 5.28869C68.5741 5.60744 68.741 6.00589 68.741 6.48402C68.741 6.94766 68.5741 7.34611 68.2404 7.67935C67.9213 8.0126 67.5223 8.17922 67.0436 8.17922Z" fill="white"/>
<path d="M77.3397 23.0448C76.0195 23.0448 74.8952 22.7695 73.9667 22.2189C73.0382 21.6539 72.3346 20.8642 71.8559 19.85C71.3771 18.8358 71.1377 17.6405 71.1377 16.264C71.1377 14.8876 71.3699 13.6922 71.8341 12.678C72.3129 11.6493 72.9947 10.8597 73.8797 10.3091C74.7791 9.75851 75.8454 9.48322 77.0786 9.48322C78.0941 9.48322 78.9645 9.67882 79.6899 10.07C80.4153 10.4467 80.9738 10.9901 81.3655 11.7H81.4526V4.52802H84.4121V19.8065H85.8918V22.784H82.8235V20.7193H81.9095C81.4598 21.4728 80.8505 22.0523 80.0816 22.458C79.3272 22.8492 78.4132 23.0448 77.3397 23.0448ZM77.8402 20.502C78.9428 20.502 79.8205 20.1905 80.4733 19.5675C81.1261 18.9445 81.4526 18.1041 81.4526 17.0464V15.4816C81.4526 14.4239 81.1261 13.5836 80.4733 12.9605C79.8205 12.3375 78.9428 12.026 77.8402 12.026C76.6361 12.026 75.7076 12.4027 75.0548 13.1561C74.4164 13.9096 74.0973 14.9455 74.0973 16.264C74.0973 17.5825 74.4164 18.6185 75.0548 19.3719C75.7076 20.1253 76.6361 20.502 77.8402 20.502Z" fill="white"/>
<path d="M89.1207 28V12.7215H87.6191V9.74402H90.7092V11.8087H91.6232C92.0584 11.0553 92.6605 10.4829 93.4294 10.0917C94.1983 9.68606 95.1195 9.48322 96.1931 9.48322C97.5132 9.48322 98.6303 9.76575 99.5443 10.3308C100.473 10.8814 101.176 11.6638 101.655 12.678C102.148 13.6922 102.395 14.8876 102.395 16.264C102.395 17.6405 102.156 18.843 101.677 19.8717C101.213 20.886 100.531 21.6684 99.6313 22.2189C98.7464 22.7695 97.6801 23.0448 96.4324 23.0448C95.4459 23.0448 94.5827 22.8564 93.8428 22.4797C93.1175 22.0885 92.5589 21.538 92.1672 20.828H92.0802V28H89.1207ZM95.6708 20.502C96.8894 20.502 97.8179 20.1253 98.4562 19.3719C99.1091 18.6185 99.4355 17.5825 99.4355 16.264C99.4355 14.9455 99.1091 13.9096 98.4562 13.1561C97.8179 12.4027 96.8894 12.026 95.6708 12.026C94.5827 12.026 93.7123 12.3375 93.0594 12.9605C92.4066 13.5836 92.0802 14.4239 92.0802 15.4816V17.0464C92.0802 18.1041 92.4066 18.9445 93.0594 19.5675C93.7123 20.1905 94.5827 20.502 95.6708 20.502Z" fill="white"/>
<path d="M111.021 23.0448C109.642 23.0448 108.438 22.7695 107.408 22.2189C106.393 21.6539 105.602 20.8642 105.036 19.85C104.47 18.8358 104.188 17.6405 104.188 16.264C104.188 14.8876 104.463 13.6922 105.014 12.678C105.58 11.6638 106.378 10.8814 107.408 10.3308C108.438 9.76575 109.65 9.48322 111.042 9.48322C112.45 9.48322 113.661 9.75851 114.676 10.3091C115.692 10.8597 116.475 11.6421 117.027 12.6563C117.578 13.6705 117.854 14.8731 117.854 16.264C117.854 17.6405 117.578 18.843 117.027 19.8717C116.475 20.886 115.685 21.6684 114.655 22.2189C113.639 22.7695 112.428 23.0448 111.021 23.0448ZM111.021 20.4803C112.254 20.4803 113.204 20.1036 113.871 19.3501C114.553 18.5967 114.894 17.568 114.894 16.264C114.894 14.931 114.553 13.8951 113.871 13.1561C113.204 12.4172 112.254 12.0477 111.021 12.0477C109.802 12.0477 108.852 12.4245 108.17 13.1779C107.488 13.9168 107.147 14.9455 107.147 16.264C107.147 17.568 107.488 18.5967 108.17 19.3501C108.852 20.1036 109.802 20.4803 111.021 20.4803Z" fill="white"/>
<path d="M120.468 22.784V9.74402H123.428V22.784H120.468ZM121.948 8.17922C121.484 8.17922 121.085 8.01984 120.751 7.70109C120.418 7.36784 120.251 6.96215 120.251 6.48402C120.251 6.02037 120.41 5.62193 120.729 5.28869C121.063 4.95544 121.469 4.78882 121.948 4.78882C122.412 4.78882 122.811 4.95544 123.145 5.28869C123.479 5.60744 123.645 6.00589 123.645 6.48402C123.645 6.94766 123.479 7.34611 123.145 7.67935C122.826 8.0126 122.427 8.17922 121.948 8.17922Z" fill="white"/>
<path d="M127.5 22.784V12.7215H125.999V9.74402H129.089V11.8087H130.003C130.467 11.0697 131.084 10.5047 131.853 10.1135C132.636 9.70779 133.579 9.50495 134.681 9.50495C136.422 9.50495 137.779 9.99757 138.751 10.9828C139.737 11.9536 140.231 13.2576 140.231 14.8948V22.784H137.271V15.4164C137.271 14.3442 136.981 13.5256 136.401 12.9605C135.835 12.3955 134.993 12.1129 133.876 12.1129C132.759 12.1129 131.911 12.3955 131.33 12.9605C130.75 13.5256 130.46 14.3442 130.46 15.4164V22.784H127.5Z" fill="white"/>
<path d="M147.018 22.784C146.22 22.784 145.596 22.5812 145.146 22.1755C144.711 21.7698 144.493 21.154 144.493 20.3281V12.0477H142.143V9.74402H144.515V5.83202H147.431V9.74402H150.674V12.0477H147.453V20.4585H151V22.784H147.018Z" fill="white"/>
</svg>
