<svg width="153" height="20" viewBox="0 0 153 20" fill="none" xmlns="http://www.w3.org/2000/svg">
<path d="M11.614 7.68212C10.45 7.31126 9.28592 6.99338 7.98959 6.99338C4.62973 6.99338 2.64556 9.21854 2.64556 12.2649C2.64556 15.2848 4.62973 17.5364 7.98959 17.5364C9.31237 17.5364 10.4764 17.1921 11.614 16.8477V19.3907C10.3706 19.7881 9.15364 20 7.96314 20C3.2805 20 0 16.7947 0 12.2649C0 7.7351 3.2805 4.5298 7.96314 4.5298C9.15364 4.5298 10.3706 4.74172 11.614 5.13907V7.68212Z" fill="white"/>
<path d="M20.7701 4.5298C25.2411 4.5298 28.4158 7.89404 28.4158 12.2649C28.4158 16.6358 25.2411 20 20.7701 20C16.2991 20 13.1245 16.6358 13.1245 12.2649C13.1245 7.89404 16.2991 4.5298 20.7701 4.5298ZM15.77 12.2649C15.77 15.2583 17.7013 17.5629 20.7701 17.5629C23.839 17.5629 25.7438 15.2583 25.7438 12.2649C25.7438 9.27152 23.839 6.96689 20.7701 6.96689C17.7013 6.96689 15.77 9.27152 15.77 12.2649Z" fill="white"/>
<path d="M30.7598 4.84768H33.3789V7.68212C34.1197 5.56291 35.8128 4.5298 37.9028 4.5298C40.7071 4.5298 43.0617 6.43709 43.0617 10.4371V19.6821H40.4161V10.649C40.4161 8.37086 39.3314 6.83444 37.0298 6.83444C34.5694 6.83444 33.4054 8.60927 33.4054 11.0464V19.6821H30.7598V4.84768Z" fill="white"/>
<path d="M51.3567 19.8411C48.3937 19.8411 47.1238 18.4371 47.1238 15.6026V7.23179H44.8751V4.84768H47.1238V1.8543L49.7694 1.08609V4.84768H53.6319V7.23179H49.7694V15.2053C49.7694 17.0066 50.325 17.404 51.7271 17.404C52.3885 17.404 53.0499 17.3245 53.6319 17.2185V19.6291C52.8647 19.7616 52.124 19.8411 51.3567 19.8411Z" fill="white"/>
<path d="M56.027 4.84768H58.6725V19.6821H56.027V4.84768ZM56.0005 2.4106V0H58.7519V2.4106H56.0005Z" fill="white"/>
<path d="M61.7108 4.84768H64.3299V7.68212C65.0707 5.56291 66.7638 4.5298 68.8538 4.5298C71.6581 4.5298 74.0127 6.43709 74.0127 10.4371V19.6821H71.3671V10.649C71.3671 8.37086 70.2824 6.83444 67.9808 6.83444C65.5204 6.83444 64.3564 8.60927 64.3564 11.0464V19.6821H61.7108V4.84768Z" fill="white"/>
<path d="M82.9586 20C78.9902 20 76.9267 17.5894 76.9267 13.6159V4.84768H79.5723V13.8013C79.5723 16 80.6834 17.5894 82.985 17.5894C85.3396 17.5894 86.3714 15.9735 86.3714 13.7483V4.84768H89.0169V13.6159C89.0169 17.5894 86.9269 20 82.9586 20Z" fill="white"/>
<path d="M97.969 20C94.0007 20 91.9372 17.5894 91.9372 13.6159V4.84768H94.5827V13.8013C94.5827 16 95.6939 17.5894 97.9955 17.5894C100.35 17.5894 101.382 15.9735 101.382 13.7483V4.84768H104.027V13.6159C104.027 17.5894 101.937 20 97.969 20Z" fill="white"/>
<path d="M107.001 4.84768H109.62V7.65563C110.334 5.56291 112.001 4.5298 114.011 4.5298C116.075 4.5298 117.9 5.64238 118.667 7.92053C119.408 5.64238 121.26 4.5298 123.35 4.5298C126.101 4.5298 128.403 6.43709 128.403 10.4371V19.6821H125.758V10.649C125.758 8.37086 124.726 6.83444 122.53 6.83444C120.149 6.83444 119.038 8.60927 119.038 11.0464V19.6821H116.392V10.649C116.392 8.37086 115.361 6.83444 113.138 6.83444C110.757 6.83444 109.646 8.60927 109.646 11.0464V19.6821H107.001V4.84768Z" fill="white"/>
<path d="M131.046 16.7152H134.168V19.6821H131.046V16.7152Z" fill="white"/>
<path d="M136.053 16C136.053 13.9868 137.349 12.4768 139.703 11.7351L144.677 10.1192C144.545 7.84106 143.46 6.9404 141.317 6.9404C140.074 6.9404 138.725 7.23179 136.793 7.97351V5.43046C138.46 4.90066 140.1 4.5298 141.635 4.5298C145.577 4.5298 147.323 6.99338 147.323 10.543V19.6821H144.73V17.5099C143.91 19.0464 142.322 20 140.365 20C137.666 20 136.053 18.2517 136.053 16ZM138.725 15.7881C138.725 16.9801 139.677 17.8808 141.132 17.8808C142.931 17.8808 144.677 16.5298 144.677 14.5166V12.2914L140.735 13.5629C139.359 13.9868 138.725 14.7815 138.725 15.7881Z" fill="white"/>
<path d="M150.275 4.84768H152.921V19.6821H150.275V4.84768ZM150.249 2.4106V0H153V2.4106H150.249Z" fill="white"/>
</svg>
